<svg width="75" height="75" viewBox="0 0 75 75" fill="none" xmlns="http://www.w3.org/2000/svg">
<g clip-path="url(#clip0)">
<path d="M37.5 0C16.7893 0 0 16.7893 0 37.5C0 58.2107 16.7893 75 37.5 75C58.2107 75 75 58.2107 75 37.5C75 16.7893 58.2107 0 37.5 0ZM36.3236 12.8678C38.0419 12.8678 39.4411 13.3312 40.5213 14.2639C41.6013 15.1968 42.1418 16.427 42.1418 17.9489C42.1418 19.471 41.6014 20.6966 40.5213 21.6294C39.4411 22.5623 38.0419 23.0302 36.3236 23.0301C34.6052 23.0302 33.2059 22.5623 32.1259 21.6294C31.0949 20.6966 30.5786 19.471 30.5786 17.9489C30.5786 16.427 31.0949 15.1968 32.1259 14.2639C33.2059 13.3311 34.6052 12.8678 36.3236 12.8678ZM41.6977 29.2878L43.1717 30.9815C42.3861 33.0436 41.9907 35.3258 41.9907 37.8296V55.8747C41.9907 56.5129 42.0436 56.9521 42.1418 57.1976C42.289 57.4431 42.6075 57.6891 43.0985 57.9346C43.9823 58.4747 45.2803 58.9909 46.9986 59.4819L46.4859 62.1323C42.2636 61.6904 39.2916 61.4731 37.5732 61.4731C35.8549 61.4731 32.9116 61.6904 28.7384 62.1323L28.1479 59.4819C29.9154 59.0891 31.218 58.5971 32.0527 58.0079C32.7891 57.5661 33.1559 56.8566 33.1559 55.8747V37.4634C33.1559 35.7451 32.4902 34.8862 31.1646 34.8862L28.5874 35.3989L28.0015 32.4555C29.7689 31.7191 32.0994 31.0051 34.9961 30.3178C37.8927 29.6304 40.1266 29.2878 41.6977 29.2878Z" fill="#A7DC4C"/>
<g clip-path="url(#clip1)">
<path d="M37.5 3C16.7893 3 0 18.67 0 38C0 57.33 16.7893 73 37.5 73C58.2107 73 75 57.33 75 38C75 18.67 58.2107 3 37.5 3ZM36.3236 15.0099C38.0419 15.01 39.4411 15.4424 40.5213 16.313C41.6013 17.1837 42.1418 18.3319 42.1418 19.7523C42.1418 21.1729 41.6014 22.3168 40.5213 23.1874C39.4411 24.0581 38.0419 24.4948 36.3236 24.4948C34.6052 24.4948 33.2059 24.0581 32.1259 23.1874C31.0949 22.3168 30.5786 21.1729 30.5786 19.7523C30.5786 18.3319 31.0949 17.1837 32.1259 16.313C33.2059 15.4424 34.6052 15.01 36.3236 15.0099ZM41.6977 30.3352L43.1717 31.9161C42.3861 33.8407 41.9907 35.9708 41.9907 38.3076V55.1497C41.9907 55.7454 42.0436 56.1553 42.1418 56.3844C42.289 56.6136 42.6075 56.8432 43.0985 57.0723C43.9823 57.5764 45.2803 58.0582 46.9986 58.5164L46.4859 60.9902C42.2636 60.5777 39.2916 60.3749 37.5732 60.3749C35.8549 60.3749 32.9116 60.5777 28.7384 60.9902L28.1479 58.5164C29.9154 58.1499 31.218 57.6906 32.0527 57.1407C32.7891 56.7283 33.1559 56.0662 33.1559 55.1497V37.9659C33.1559 36.3621 32.4902 35.5605 31.1646 35.5605L28.5874 36.039L28.0015 33.2918C29.7689 32.6045 32.0994 31.9381 34.9961 31.2966C37.8927 30.655 40.1266 30.3352 41.6977 30.3352Z" fill="#A7DC4C"/>
</g>
</g>
<defs>
<clipPath id="clip0">
<rect width="75" height="75" fill="white"/>
</clipPath>
<clipPath id="clip1">
<rect width="75" height="75" fill="white" transform="translate(0 -7)"/>
</clipPath>
</defs>
</svg>
