<svg width="207" height="63" viewBox="0 0 207 63" fill="none" xmlns="http://www.w3.org/2000/svg">
<g clip-path="url(#clip0)" filter="url(#filter0_bd)">
<path d="M17.09 35.87C22.8638 29.2782 30.712 24.8515 39.34 23.32C32.6599 27.2217 26.7439 32.3042 21.88 38.32C18.3912 42.4597 15.7694 47.2579 14.17 52.43C13.8 53.71 13.52 54.93 13.3 56.09C19.83 54.36 40.54 47.89 53.37 27.59C57.9913 20.2117 61.0541 11.966 62.37 3.35999C56.9402 2.04645 51.3242 1.68108 45.77 2.27999C26.31 4.41999 4.09 19.31 4 36.85C4 39.8 4.59 45 9 51.36C10.4693 45.6431 13.2378 40.3423 17.09 35.87V35.87Z" fill="#A7DC4C"/>
</g>
<path d="M43.376 23.816V28.928H51.488V31.568H43.376V38H40.256V21.2H52.52V23.816H43.376ZM63.1978 38.24C61.4858 38.24 59.9418 37.872 58.5658 37.136C57.1898 36.384 56.1098 35.352 55.3258 34.04C54.5418 32.712 54.1498 31.232 54.1498 29.6C54.1498 27.968 54.5418 26.496 55.3258 25.184C56.1098 23.856 57.1898 22.824 58.5658 22.088C59.9418 21.336 61.4858 20.96 63.1978 20.96C64.9098 20.96 66.4538 21.336 67.8298 22.088C69.2058 22.824 70.2858 23.848 71.0698 25.16C71.8538 26.472 72.2458 27.952 72.2458 29.6C72.2458 31.248 71.8538 32.728 71.0698 34.04C70.2858 35.352 69.2058 36.384 67.8298 37.136C66.4538 37.872 64.9098 38.24 63.1978 38.24ZM63.1978 35.504C64.3178 35.504 65.3258 35.256 66.2218 34.76C67.1178 34.248 67.8218 33.544 68.3338 32.648C68.8458 31.736 69.1018 30.72 69.1018 29.6C69.1018 28.48 68.8458 27.472 68.3338 26.576C67.8218 25.664 67.1178 24.96 66.2218 24.464C65.3258 23.952 64.3178 23.696 63.1978 23.696C62.0778 23.696 61.0698 23.952 60.1738 24.464C59.2778 24.96 58.5738 25.664 58.0618 26.576C57.5498 27.472 57.2938 28.48 57.2938 29.6C57.2938 30.72 57.5498 31.736 58.0618 32.648C58.5738 33.544 59.2778 34.248 60.1738 34.76C61.0698 35.256 62.0778 35.504 63.1978 35.504ZM86.5449 38L83.1129 33.08C82.9689 33.096 82.7529 33.104 82.4649 33.104H78.6729V38H75.5529V21.2H82.4649C83.9209 21.2 85.1849 21.44 86.2569 21.92C87.3449 22.4 88.1769 23.088 88.7529 23.984C89.3289 24.88 89.6169 25.944 89.6169 27.176C89.6169 28.44 89.3049 29.528 88.6809 30.44C88.0729 31.352 87.1929 32.032 86.0409 32.48L89.9049 38H86.5449ZM86.4729 27.176C86.4729 26.104 86.1209 25.28 85.4169 24.704C84.7129 24.128 83.6809 23.84 82.3209 23.84H78.6729V30.536H82.3209C83.6809 30.536 84.7129 30.248 85.4169 29.672C86.1209 29.08 86.4729 28.248 86.4729 27.176ZM96.2812 23.84H90.7132V21.2H104.969V23.84H99.4012V38H96.2812V23.84ZM114.23 38.24C111.91 38.24 110.102 37.592 108.806 36.296C107.51 34.984 106.862 33.112 106.862 30.68V21.2H109.982V30.56C109.982 33.856 111.406 35.504 114.254 35.504C117.086 35.504 118.502 33.856 118.502 30.56V21.2H121.574V30.68C121.574 33.112 120.926 34.984 119.63 36.296C118.35 37.592 116.55 38.24 114.23 38.24ZM140.872 21.2V38H138.304L129.04 26.624V38H125.944V21.2H128.512L137.776 32.576V21.2H140.872ZM157.973 35.384V38H145.373V21.2H157.637V23.816H148.493V28.184H156.605V30.752H148.493V35.384H157.973ZM161.451 21.2H164.571V35.36H173.355V38H161.451V21.2ZM175.819 21.2H178.939V35.36H187.723V38H175.819V21.2ZM201.199 34.112H192.799L191.143 38H187.927L195.487 21.2H198.559L206.143 38H202.879L201.199 34.112ZM200.167 31.664L196.999 24.32L193.855 31.664H200.167Z" fill="black"/>
<defs>
<filter id="filter0_bd" x="0" y="-2" width="66.36" height="64.11" filterUnits="userSpaceOnUse" color-interpolation-filters="sRGB">
<feFlood flood-opacity="0" result="BackgroundImageFix"/>
<feGaussianBlur in="BackgroundImage" stdDeviation="2"/>
<feComposite in2="SourceAlpha" operator="in" result="effect1_backgroundBlur"/>
<feColorMatrix in="SourceAlpha" type="matrix" values="0 0 0 0 0 0 0 0 0 0 0 0 0 0 0 0 0 0 127 0"/>
<feOffset dy="2"/>
<feGaussianBlur stdDeviation="2"/>
<feColorMatrix type="matrix" values="0 0 0 0 0.405081 0 0 0 0 0.579167 0 0 0 0 0.106181 0 0 0 1 0"/>
<feBlend mode="normal" in2="effect1_backgroundBlur" result="effect2_dropShadow"/>
<feBlend mode="normal" in="SourceGraphic" in2="effect2_dropShadow" result="shape"/>
</filter>
<clipPath id="clip0">
<rect width="58.36" height="54.11" fill="white" transform="translate(4 2)"/>
</clipPath>
</defs>
</svg>
