<?xml version="1.0"?>
<svg xmlns="http://www.w3.org/2000/svg" xmlns:xlink="http://www.w3.org/1999/xlink" xmlns:svgjs="http://svgjs.com/svgjs" version="1.1" width="512" height="512" x="0" y="0" viewBox="0 0 512 512" style="enable-background:new 0 0 512 512" xml:space="preserve" class=""><g><path xmlns="http://www.w3.org/2000/svg" d="m329.308594 278.929688c-25.257813 0-45.808594 20.546874-45.808594 45.804687s20.550781 45.808594 45.808594 45.808594c25.257812 0 45.808594-20.550781 45.808594-45.808594s-20.550782-45.804687-45.808594-45.804687zm0 76.617187c-16.988282 0-30.808594-13.824219-30.808594-30.8125s13.820312-30.808594 30.808594-30.808594c16.988281 0 30.808594 13.820313 30.808594 30.808594s-13.820313 30.8125-30.808594 30.8125zm0 0" fill="#ffaf00" data-original="#000000" style=""/><path xmlns="http://www.w3.org/2000/svg" d="m128.066406 322.734375c0 27.582031 22.4375 50.015625 50.015625 50.015625 27.582031 0 50.015625-22.433594 50.015625-50.015625 0-27.578125-22.433594-50.015625-50.015625-50.015625-27.578125 0-50.015625 22.4375-50.015625 50.015625zm85.035156 0c0 19.308594-15.710937 35.019531-35.019531 35.019531-19.308593 0-35.015625-15.710937-35.015625-35.019531s15.707032-35.015625 35.015625-35.015625c19.308594 0 35.019531 15.710938 35.019531 35.015625zm0 0" fill="#ffaf00" data-original="#000000" style=""/><path xmlns="http://www.w3.org/2000/svg" d="m265.546875 225.433594c0-19.601563-15.945313-35.546875-35.542969-35.546875-19.601562 0-35.542968 15.945312-35.542968 35.546875 0 19.597656 15.945312 35.542968 35.542968 35.542968s35.542969-15.945312 35.542969-35.542968zm-56.089844 0c0-11.332032 9.21875-20.546875 20.546875-20.546875s20.546875 9.214843 20.546875 20.546875c0 11.328125-9.21875 20.542968-20.546875 20.542968s-20.546875-9.214843-20.546875-20.542968zm0 0" fill="#ffaf00" data-original="#000000" style=""/><path xmlns="http://www.w3.org/2000/svg" d="m493.789062 246.160156-.085937-9.457031c-.558594-62.980469-25.394531-122.195313-69.9375-166.738281-45.117187-45.117188-105.105469-69.964844-168.910156-69.964844-26.238281 0-51.988281 4.214844-76.535157 12.527344l-7.648437 2.589844 21.359375 50.492187 6.527344-2.097656c18.078125-5.804688 37.019531-8.75 56.296875-8.75 100.222656 0 182.804687 81.523437 184.085937 181.730469l.125 9.667968h-18.363281l45.648437 64.96875 45.648438-64.96875zm-27.4375 38.878906-16.78125-23.882812h4.683594l-.316406-24.851562c-1.386719-108.375-90.695312-196.542969-199.082031-196.542969-18.515625 0-36.75 2.515625-54.308594 7.484375l-9.714844-22.96875c20.660157-6.160156 42.15625-9.277344 64.023438-9.277344 59.796875 0 116.019531 23.285156 158.304687 65.570312 41.746094 41.746094 65.023438 97.242188 65.546875 156.261719l.214844 24.324219h4.210937zm0 0" fill="#ffaf00" data-original="#000000" style=""/><path xmlns="http://www.w3.org/2000/svg" d="m313.441406 414.246094c-18.078125 5.804687-37.015625 8.75-56.296875 8.75-100.222656 0-182.804687-81.527344-184.085937-181.734375l-.121094-9.664063h18.359375l-45.648437-64.96875-45.648438 64.96875h18.210938l.085937 9.457032c.558594 62.980468 25.394531 122.195312 69.9375 166.738281 45.117187 45.117187 105.105469 69.964843 168.910156 69.964843 26.238281 0 51.988281-4.214843 76.535157-12.527343l7.648437-2.585938-21.359375-50.496093zm-56.296875 48.511718c-59.796875 0-116.019531-23.285156-158.304687-65.570312-41.746094-41.746094-65.023438-97.242188-65.546875-156.261719l-.214844-24.324219h-4.210937l16.78125-23.882812 16.78125 23.882812h-4.6875l.320312 24.855469c1.382812 108.371094 90.691406 196.539063 199.082031 196.539063 18.515625 0 36.75-2.515625 54.304688-7.484375l9.714843 22.96875c-20.65625 6.160156-42.152343 9.277343-64.019531 9.277343zm0 0" fill="#ffaf00" data-original="#000000" style=""/><path xmlns="http://www.w3.org/2000/svg" d="m329.308594 107.214844c-12.835938 0-25.230469 3.777344-35.847656 10.925781l8.378906 12.4375c8.128906-5.472656 17.628906-8.367187 27.46875-8.367187 27.183594 0 49.300781 22.117187 49.300781 49.300781 0 9.839843-2.894531 19.339843-8.367187 27.46875l12.4375 8.378906c7.148437-10.617187 10.925781-23.011719 10.925781-35.847656 0-35.453125-28.84375-64.296875-64.296875-64.296875zm0 0" fill="#ffaf00" data-original="#000000" style=""/><path xmlns="http://www.w3.org/2000/svg" d="m141.042969 195.082031c-5.003907-7.105469-7.652344-15.46875-7.652344-24.179687 0-23.207032 18.878906-42.082032 42.082031-42.082032 7.816406 0 15.457032 2.171876 22.09375 6.285157l7.898438-12.75c-9.011719-5.582031-19.382813-8.535157-29.992188-8.535157-31.476562 0-57.082031 25.605469-57.082031 57.082032 0 11.820312 3.59375 23.171875 10.390625 32.816406zm0 0" fill="#ffaf00" data-original="#000000" style=""/><path xmlns="http://www.w3.org/2000/svg" d="m279.441406 359.488281-3.140625-14.667969c-13.660156 2.925782-28.039062 2.988282-41.6875.199219l-3 14.695313c7.65625 1.566406 15.523438 2.359375 23.378907 2.359375 8.210937 0 16.4375-.871094 24.449218-2.585938zm0 0" fill="#ffaf00" data-original="#000000" style=""/><path xmlns="http://www.w3.org/2000/svg" d="m366.980469 277.046875c2.824219-10.144531 4.253906-20.648437 4.253906-31.21875 0-64.097656-52.144531-116.242187-116.242187-116.242187-64.097657 0-116.246094 52.144531-116.246094 116.242187 0 7.855469.792968 15.722656 2.359375 23.378906l14.695312-3c-1.363281-6.671875-2.054687-13.527343-2.054687-20.378906 0-55.824219 45.417968-101.246094 101.246094-101.246094 55.824218 0 101.246093 45.421875 101.246093 101.246094 0 9.210937-1.25 18.359375-3.707031 27.195313zm0 0" fill="#ffaf00" data-original="#000000" style=""/><path xmlns="http://www.w3.org/2000/svg" d="m329.308594 347.496094c-5.832032 0-11.664063-2.21875-16.101563-6.65625l10.605469-10.605469c3.027344 3.03125 7.960938 3.03125 10.992188 0s3.03125-7.964844 0-10.996094l10.605468-10.605469c8.878906 8.878907 8.878906 23.328126 0 32.207032-4.4375 4.4375-10.269531 6.65625-16.101562 6.65625zm0 0" fill="#ffaf00" data-original="#000000" style=""/><path xmlns="http://www.w3.org/2000/svg" d="m344.570312 263.34375-14.722656-2.855469c.921875-4.765625 1.390625-9.695312 1.390625-14.660156 0-10.371094-2.054687-20.429687-6.105469-29.898437l13.789063-5.902344c4.851563 11.34375 7.316406 23.390625 7.316406 35.800781 0 5.917969-.5625 11.8125-1.667969 17.515625zm-23.511718-55.546875c-2.269532-3.925781-4.910156-7.679687-7.851563-11.152344l11.449219-9.691406c3.511719 4.152344 6.671875 8.640625 9.386719 13.339844zm-14.136719-17.746094c-3.328125-3.101562-6.949219-5.917969-10.769531-8.378906l8.121094-12.609375c4.5625 2.941406 8.894531 6.308594 12.875 10.019531zm0 0" fill="#ffaf00" data-original="#000000" style=""/><path xmlns="http://www.w3.org/2000/svg" d="m352.675781 164.824219c-2.292969-7.996094-8.683593-14.386719-16.679687-16.679688l4.132812-14.417969c12.925782 3.707032 23.257813 14.039063 26.964844 26.964844zm0 0" fill="#ffaf00" data-original="#000000" style=""/><path xmlns="http://www.w3.org/2000/svg" d="m458.636719 236.242188c-.535157-41.699219-13.753907-81.730469-38.226563-115.761719l12.179688-8.757813c26.277344 36.542969 40.472656 79.535156 41.042968 124.328125zm-44.039063-123.460938c-2.984375-3.769531-6.140625-7.472656-9.378906-11.019531l11.074219-10.113281c3.472656 3.800781 6.855469 7.773437 10.058593 11.816406zm-16.050781-17.984375c-3.402344-3.398437-6.96875-6.710937-10.597656-9.855469l9.824219-11.332031c3.886718 3.371094 7.710937 6.925781 11.363281 10.5625zm0 0" fill="#ffaf00" data-original="#000000" style=""/><path xmlns="http://www.w3.org/2000/svg" d="m178.082031 349.144531c-6.765625 0-13.53125-2.574219-18.679687-7.726562l10.601562-10.605469c4.457032 4.453125 11.703125 4.453125 16.15625 0s4.453125-11.699219 0-16.152344l10.605469-10.605468c10.300781 10.300781 10.300781 27.0625 0 37.363281-5.148437 5.152343-11.914063 7.726562-18.683594 7.726562zm0 0" fill="#ffaf00" data-original="#000000" style=""/></g></svg>
