<svg width="90" height="94" viewBox="0 0 90 94" fill="none" xmlns="http://www.w3.org/2000/svg">
<g clip-path="url(#clip0)">
<path d="M37.8103 5.73267C37.5094 5.22977 37.8103 4.62345 37.2046 4.60317C36.08 4.5687 35.2622 4.03335 34.5273 3.27089L33.8247 2.57129C34.2568 2.32795 33.8873 1.30795 34.8544 1.53507C35.0563 1.58374 35.5348 1.30998 35.5469 1.15587C35.5974 0.571851 35.9689 0.383263 36.3303 0.620519C36.5564 0.770578 37.3984 0.959166 36.7886 1.65471C36.724 1.72974 36.938 2.16167 37.1157 2.32389C37.5821 2.74771 37.5902 2.28334 37.5761 2.00755C37.5559 1.62632 38.4806 1.33431 37.677 0.896303C37.8183 0.782745 37.9476 0.596185 38.103 0.571851C38.4312 0.54106 38.7613 0.535637 39.0903 0.555628C39.1469 0.695548 39.2014 0.833441 39.2559 0.973361L39.5931 0.555628C39.91 0.456264 40.4007 0.176424 40.5178 0.287955C41.0932 0.857775 41.2325 -0.158168 41.7292 0.0263648C42.0946 0.162229 42.5509 0.0527266 42.9668 0.0527266C43.3828 0.0527266 43.8593 -0.0811101 44.2025 0.0770605C45.2584 0.563739 46.2659 -0.0932771 47.2896 0.0547544C47.9155 0.143979 48.5394 0.326483 49.1632 0.326483C49.7871 0.326483 50.4473 0.111534 51.1015 0.0628657C51.7654 0.00912642 52.4324 0.00912642 53.0963 0.0628657C54.6085 0.19873 56.1248 0.354873 57.6229 0.590101C57.8612 0.62863 57.9742 1.20859 58.2448 1.38501C58.4669 1.53101 58.9373 2.82071 59.1433 1.34243C59.1554 1.26131 59.3896 1.12139 59.4562 1.15181C60.0861 1.43976 60.8191 1.64052 61.2733 2.10489C61.5903 2.42123 61.5116 3.1188 61.6327 3.65009C61.6888 3.79483 61.7642 3.93126 61.8568 4.05566C61.9857 3.96568 62.1018 3.85858 62.2021 3.73729C62.3656 3.4757 62.4625 3.1695 62.6422 2.92616C62.6989 2.86851 62.7691 2.82605 62.8463 2.80267C62.9236 2.77929 63.0054 2.77573 63.0844 2.79232C64.0051 3.17964 64.8773 3.77176 65.8323 3.96644C66.8418 4.16922 67.0033 4.9114 67.3789 5.5745C68.2248 4.73093 68.9093 5.58464 69.2303 6.02671C69.6341 6.5945 70.7991 7.21096 69.7977 8.25732C69.7532 8.30193 70.0197 8.80484 70.2338 8.92042C70.8011 9.22865 70.5709 8.67505 70.6376 8.46213C70.7365 8.18838 70.8233 7.91056 70.9162 7.63275C71.0065 7.84574 71.0781 8.06626 71.1302 8.29179C71.1477 8.5415 71.1511 8.792 71.1403 9.04209C71.1726 9.79847 71.3967 9.44766 71.8106 9.24487C72.2245 9.04209 72.9251 8.69939 73.1432 9.61191C72.7878 9.67883 72.2508 9.38277 72.172 9.99111C72.1478 10.1756 72.4749 10.3967 72.6425 10.6177C72.5274 10.8205 72.4002 11.0233 72.2972 11.2261C71.9641 11.8952 72.0953 12.4428 72.6748 12.9335C73.2542 13.4242 73.4965 12.9335 73.8862 12.6719C74.2758 12.4103 74.722 12.3069 75.144 12.1325C75.675 12.9173 76.1778 13.7223 76.7592 14.4604C76.8541 14.5801 77.3205 14.4037 77.6153 14.3651C77.6254 14.7707 77.5265 15.2391 77.6759 15.594C77.8475 15.9996 78.2251 16.324 78.5501 16.6485C78.6107 16.7093 78.855 16.6201 78.9882 16.5491C79.0246 16.5288 79.0084 16.2916 78.9438 16.2166C78.7278 15.961 78.3704 15.7745 78.2715 15.4906C78.1504 15.1357 78.2331 14.7119 78.2271 14.3185C78.5219 14.499 78.9095 14.6125 79.0932 14.8721C79.7272 15.7664 80.2239 16.7641 80.8962 17.6239C81.5019 18.4005 82.3641 19.019 81.6554 20.1607C82.2954 20.479 81.6554 21.7545 82.8224 21.7262C82.9152 21.7262 83.0243 22.221 83.1192 22.4866C82.8389 22.5381 82.5536 22.5558 82.2692 22.5393C82.0551 22.5028 81.8654 22.227 81.6635 22.223C81.559 22.2368 81.4599 22.2777 81.376 22.3417C81.292 22.4057 81.2262 22.4906 81.1849 22.588C81.1763 22.7008 81.1958 22.814 81.2416 22.9174C81.2874 23.0208 81.3581 23.1111 81.4474 23.1801C81.8681 23.3812 82.3191 23.5107 82.782 23.5634C84.484 23.7053 84.6799 24.8774 84.6637 26.2198H84.1933C84.266 25.3803 82.681 25.9055 83.0505 24.8206L82.2247 24.9261C82.4266 25.5101 81.619 26.3618 82.9193 26.8687C83.0707 26.9174 82.992 26.8201 82.9193 26.7227L82.6952 26.9478C82.7846 27.0304 82.8805 27.1057 82.9819 27.1729C83.0021 27.1729 83.0828 27.0756 82.9112 26.8708C82.9112 25.7555 83.6906 26.4125 84.1852 26.2219L84.3488 26.6396L84.6859 26.2219C84.8878 26.5788 86.2567 29.8375 86.18 29.9125C85.3159 30.7764 85.6793 31.1515 86.6666 31.5185C87.4419 31.8085 87.1592 32.6338 87.2905 33.445C87.1269 33.4044 87.0401 33.2746 86.9594 33.2767C86.7406 33.2989 86.5239 33.3383 86.3112 33.3943C86.3395 33.5038 86.3698 33.7106 86.396 33.7106C86.7141 33.7153 87.0261 33.6227 87.2905 33.445C87.6458 34.0533 88.4191 36.2474 88.1687 36.4239C87.0603 37.2086 88.092 37.9204 88.2515 38.5369C88.5402 39.6481 88.7967 40.5383 88.7139 41.6881C88.6869 42.0835 88.7776 42.4781 88.9743 42.8217C89.2994 43.3489 88.9441 43.2881 88.6432 43.3266C88.094 43.3976 88.2192 43.6064 88.5059 43.8984C89.041 44.4439 88.304 44.7319 88.2737 45.1151C88.2556 45.3889 88.8007 45.7012 89.0955 45.9972C88.9622 46.1149 88.8451 46.2974 88.6917 46.3379C87.9002 46.5508 88.1324 46.9463 88.4716 47.3863C88.6735 47.6661 88.8512 47.9744 89.0389 48.2704C87.5974 48.457 88.6755 48.897 88.8875 49.3452C89.0773 49.7508 89.2671 50.3692 89.0894 50.6612C88.8249 51.083 88.8875 51.1966 89.1116 51.6001C89.4104 52.1253 89.2671 52.2085 88.5544 51.9834C88.1324 51.8455 87.7468 51.7461 87.7003 52.389L87.2844 52.5552L87.7003 52.8919C87.6519 53.0257 87.6034 53.1616 87.5509 53.2974C87.4823 53.4637 87.4096 53.6259 87.3389 53.7902C87.4782 53.8267 87.6438 53.9321 87.7427 53.8895C88.0693 53.7426 88.388 53.5788 88.6977 53.3988C89.1682 53.92 89.0894 54.4452 88.6977 54.9623C88.1324 55.7045 88.3585 56.1668 89.2005 56.4183C89.2146 56.8461 88.3545 57.2659 89.2146 57.7201C89.3781 57.8073 89.5275 58.3285 89.471 58.367C88.9158 58.8009 89.7941 59.0362 89.6063 59.2288C89.4185 59.4215 89.0006 59.3221 88.7401 59.4499C88.3848 59.5965 88.0692 59.8258 87.8195 60.119C87.7044 60.2792 87.8881 60.6564 87.9386 60.9302C88.1102 60.7659 88.2758 60.5915 88.4615 60.4415C88.51 60.4029 88.619 60.4415 88.6998 60.4415V61.4554C88.5661 61.486 88.4381 61.5373 88.3202 61.6075C88.2879 61.6298 88.3707 61.8102 88.403 61.9116C88.5289 61.8233 88.6309 61.7048 88.6998 61.5669C89.4488 61.4128 89.1258 60.8308 89.2005 60.4496C89.4024 60.6889 90.103 59.8919 89.9838 60.9809C89.8284 62.378 88.411 63.7063 89.6527 65.2393C89.7577 65.3671 89.3277 65.8862 89.2267 66.2532C89.1641 66.4763 90.1999 66.7156 89.2469 66.9609C89.1197 66.9934 88.7745 66.6243 88.724 66.3992C88.6351 65.9937 88.724 65.5698 88.6917 65.1562C88.6594 64.7425 88.5483 64.3856 88.4736 64.0003C88.0698 64.2173 87.4964 64.343 87.3228 64.6796C87.1491 65.0162 87.3571 65.5577 87.4984 65.9795C87.557 66.1518 87.878 66.235 88.0799 66.3587C87.7629 66.4337 87.7649 67.2002 87.1895 66.7642C87.0886 66.6852 86.8624 66.7642 86.6949 66.7805C86.7595 67.0035 86.7575 67.332 86.8968 67.4273C87.2761 67.6903 87.7005 67.8807 88.1486 67.989C89.1136 68.1918 88.6695 68.8529 88.6069 69.3233C88.5362 69.8567 87.5469 68.3094 87.6842 69.6803C87.7407 70.2318 87.5186 70.8584 88.1506 71.2356C88.0516 71.3329 87.9487 71.5195 87.8538 71.5094C87.6317 71.483 87.236 71.3796 87.2299 71.2903C87.1491 69.8303 86.4889 70.8625 86.3698 71.1525C86.2143 71.5296 86.287 72.063 86.4142 72.4807C86.5414 72.8984 86.9109 73.2715 87.0825 73.6974C87.4742 74.6809 86.7393 74.5308 86.073 74.543H86.1861C86.1539 74.4093 86.103 74.2809 86.0346 74.1618C86.0104 74.1313 85.8327 74.2145 85.7298 74.2449C85.8182 74.3709 85.9361 74.4732 86.073 74.543C85.8509 75.3217 85.4108 76.074 85.2068 76.8851C84.8798 78.1951 84.4275 77.5442 83.9227 77.0636C83.8803 77.023 83.7632 77.0636 83.6784 77.0636C83.6669 76.6462 83.7166 76.2294 83.8258 75.8266C83.8743 75.6745 83.7774 75.7536 83.6784 75.8266L83.9025 76.0517C83.9848 75.9566 84.0591 75.8549 84.1246 75.7475C84.1347 75.7293 84.0277 75.6461 83.8258 75.8205C83.2989 76.1267 82.7194 75.8002 82.677 76.6661V76.5546C82.5436 76.5859 82.4157 76.6372 82.2974 76.7067C82.2651 76.729 82.3499 76.9095 82.3802 77.0108C82.5061 76.9225 82.6081 76.804 82.677 76.6661C83.0309 76.7458 83.3711 76.8777 83.6865 77.0575C83.6865 77.5584 83.7733 78.0714 83.6623 78.554C83.5593 78.99 84.6435 79.2212 83.8117 79.6977C83.9268 79.8234 84.0318 80.0485 84.1569 80.0587C84.7748 80.1114 84.8232 80.5251 84.5809 80.884C84.4578 81.0685 83.9954 81.0239 83.6865 81.0868L83.523 80.6691L83.1838 81.0523C82.2873 81.4133 82.7012 81.9831 82.9092 82.563C82.9758 82.7496 82.8506 83.0436 82.7396 83.2444C82.4993 83.6763 82.2732 83.4472 82.0531 83.1917C81.9073 82.9944 81.7323 82.8207 81.5342 82.6766C80.7266 82.1757 81.9158 81.9628 81.827 81.324C81.8755 81.172 81.7785 81.251 81.6796 81.324L81.9037 81.5491C81.9859 81.454 82.0602 81.3523 82.1258 81.245C82.1359 81.2267 82.0309 81.1456 81.827 81.318C80.2017 81.9567 79.2891 80.304 77.8697 80.4825C77.8192 80.4825 77.6961 80.3669 77.7021 80.3162C77.8859 78.8602 76.9935 78.5114 75.8164 78.3979C75.7558 78.3979 75.6851 77.97 75.7073 77.749C75.7557 77.5043 75.8323 77.2661 75.9355 77.0392C75.7057 77.056 75.4798 77.1073 75.2652 77.1913C75.0628 77.3376 74.8826 77.5124 74.7301 77.7105C73.7812 78.7244 73.8438 79.2192 75.0491 80.0323C75.2329 80.158 75.8789 80.302 75.4529 80.4156C73.8195 80.8495 75.3318 81.4903 75.4186 81.4964C75.8971 81.541 76.1576 81.614 76.1879 82.192C76.2161 82.7334 75.7437 83.5993 76.9389 83.6277C77.1408 83.6277 76.4725 85.0471 76.0586 85.0471C75.99 85.0471 75.8164 84.7146 75.8567 84.6416C76.3272 83.9237 75.2894 83.4391 75.5478 82.7212C75.5741 82.6462 74.8089 82.1331 74.397 82.1129C74.1648 82.1007 73.8579 82.6584 73.6762 83.0071C73.5732 83.2099 73.765 83.6155 73.6399 83.7311C72.9635 84.3881 73.3067 84.5422 73.9952 84.6801C74.08 84.6963 74.0941 85.1039 74.1426 85.331C73.9649 85.3087 73.7893 85.2844 73.6116 85.2702C73.3289 85.2459 73.0442 85.2296 72.7596 85.2094C72.7474 85.4345 72.6364 85.765 72.7434 85.8725C73.4602 86.5883 72.909 86.5031 72.3739 86.5944C71.9967 86.6858 71.6491 86.8729 71.3644 87.1378C70.8597 87.5718 71.5098 88.5228 70.6578 88.8392C70.8738 88.9223 71.2029 89.1393 71.2877 89.0663C72.2548 88.2552 72.4406 89.0176 72.6566 89.7152C73.024 90.8954 72.9433 90.8123 72.6182 91.1144C71.7521 91.9255 71.4068 91.084 70.9646 90.6379C70.6618 90.3337 70.5164 89.7923 70.1712 89.6239C69.725 89.409 69.2364 89.6239 68.875 90.0701C68.776 90.1938 68.3985 90.0883 68.1481 90.0883C68.0249 89.922 67.9301 89.6523 67.7706 89.6057C67.393 89.4962 66.866 89.5773 67.4697 88.9852C67.607 88.8493 67.5202 88.4417 67.6575 88.3545C68.667 87.7299 67.8735 87.1561 67.6474 86.568C67.7956 86.5295 67.9372 86.4687 68.0673 86.3875C68.7962 85.7528 69.4968 85.1465 68.6852 84.0353C68.4833 83.7716 68.4247 83.0213 69.2727 83.0112C69.3999 83.0112 69.6886 82.4617 69.6139 82.3015C69.412 81.8817 69.0647 81.5349 68.772 81.1598C68.2995 81.9912 68.0512 80.813 67.6474 81.0341V80.5291C68.6125 80.2939 67.9583 79.5152 68.2935 78.7893C68.344 78.6372 68.245 78.7163 68.1481 78.7893L68.3722 79.0123C68.4544 78.9179 68.5287 78.8169 68.5943 78.7102C68.6044 78.6919 68.4974 78.6088 68.2935 78.7811C67.5747 79.0285 66.7449 78.8602 67.6312 79.8336C67.7463 79.9613 67.6474 80.2878 67.6474 80.521C67.1346 80.59 66.6883 80.4967 66.3916 80.0201C66.3088 80.3933 66.1452 80.7745 66.1897 81.1375C66.2058 81.2896 66.656 81.5228 66.8842 81.4964C67.1547 81.464 67.399 81.1922 67.6555 81.026C67.8069 83.1957 67.7847 83.1815 66.8479 84.6416C66.7408 84.8119 67.0376 85.2499 67.1467 85.5521C66.4784 85.3838 65.8565 85.7549 65.7556 86.2476C65.4991 87.5312 64.3846 87.586 63.5609 88.0544C63.3731 88.1619 62.9935 87.9956 62.8623 88.1213C61.6388 89.3076 60.0034 89.5408 58.5113 90.0944C58.3457 90.1573 58.2509 90.4168 58.1237 90.5831L57.201 90.9136L58.1237 92.0938C58.0813 92.8462 57.5018 92.5197 57.1141 92.5967C56.9057 92.2761 56.6778 91.9687 56.4317 91.6761C56.2245 91.4915 55.9993 91.3285 55.7594 91.1894C55.7089 91.4895 55.6604 91.7978 55.61 92.0938H55.1193L54.6186 91.5909C54.4399 91.3964 54.2362 91.2266 54.0129 91.086H54.1098C54.0795 90.9518 54.0284 90.8231 53.9584 90.7048C53.9362 90.6744 53.7565 90.7575 53.6556 90.7899C53.744 90.9159 53.8619 91.0183 53.9988 91.088C54.2224 91.2274 54.4262 91.3966 54.6045 91.5909L55.1052 92.0938C55.1597 92.2317 55.2142 92.3717 55.2708 92.5096L55.6059 92.0938C55.7735 92.2236 56.0501 92.3291 56.0885 92.4994C56.3126 93.4119 54.5984 92.905 54.9861 93.9818C54.8084 93.8925 54.6368 93.7364 54.4571 93.7262C53.3426 93.6674 53.5445 92.3189 52.7288 91.9803C52.852 91.7349 53.062 91.4956 53.0801 91.2422C53.1124 90.8366 53.0801 90.2911 52.4865 90.9258C52.4704 90.9461 52.111 90.7534 52.115 90.6683C52.1857 89.2772 50.6512 88.3201 51.1055 86.8377C50.9339 86.8377 50.6856 86.7607 50.6068 86.8377C50.387 87.06 50.2194 87.3288 50.1162 87.6245C49.9466 88.2085 49.6175 88.1639 49.2177 87.9246C49.0805 87.8435 48.9492 87.5758 48.8685 87.5961C48.1255 87.7888 47.3966 88.028 46.6617 88.2511C47.155 88.5774 47.6271 88.935 48.075 89.3218C48.4788 89.7274 48.5656 89.1859 48.7917 89.1636C49.0542 89.1373 49.3348 89.2954 49.5993 89.3664C49.454 89.6016 49.2783 90.0538 49.1652 90.0376C48.2547 89.9139 47.9316 90.2647 48.0952 91.1509C48.2365 91.9255 47.8731 92.0999 47.1381 92.106C45.212 92.1161 43.302 92.1243 41.5818 91.0779C41.5253 90.94 41.4707 90.8001 41.4162 90.6622L41.0791 91.0779C40.6652 91.0779 40.0695 91.2584 39.8676 91.0495C38.4826 89.6138 37.0531 90.281 35.5833 90.794C35.0503 90.9785 34.4405 90.6642 33.9681 91.3557C33.6369 91.8302 33.6289 91.1833 33.5643 90.9623C33.4068 90.3438 32.9141 90.648 32.5547 90.575C32.7849 89.4009 31.6583 89.1373 31.1273 89.1434C29.9159 89.1434 29.0013 88.5472 28.0705 88.0321C26.6935 87.2717 25.3024 86.8762 23.7336 87.0425C22.926 87.1297 22.1648 87.0952 21.5127 86.3571C21.226 86.0347 20.4668 86.1361 19.9217 86.0489C19.5623 85.9901 19.0374 86.2314 19.1767 85.3128C19.2251 85.1607 19.1282 85.2418 19.0313 85.3128L19.2554 85.5358C19.3376 85.4414 19.4119 85.3404 19.4775 85.2337C19.4876 85.2154 19.3806 85.1323 19.1767 85.3047C19.0062 85.4757 18.7756 85.5725 18.5346 85.5744C18.2601 84.4145 16.9194 84.2644 16.3743 83.2647C16.13 82.8145 15.1427 82.6705 14.4683 82.5813C13.3619 82.4353 12.6007 81.8148 11.8133 81.1111C8.33049 78.0085 6.46088 73.963 4.98699 69.6458C4.39138 67.8917 3.97748 66.0525 2.98816 64.4586C2.24516 63.2662 2.51974 61.8549 2.04123 60.5854C1.62733 59.4965 1.61522 58.2534 1.41332 57.0834C1.39717 57.0002 1.14479 56.9617 1.00951 56.9029C1.00951 54.8974 1.00951 52.8919 1.00951 50.8863C1.00951 50.4463 1.24978 49.8379 0.403806 49.8238C0.276607 49.8238 0.157485 49.3492 0.0343246 49.0937C0.319007 49.0512 0.615803 48.9376 0.884334 48.9863C1.10643 49.0268 1.38101 49.6311 1.49004 49.0045C1.58946 48.3526 1.56342 47.6876 1.41332 47.0456C1.27804 46.4089 0.676374 47.9886 0.506776 46.9321C0.442167 46.5265 0.528985 46.0946 0.490624 45.6809C0.430053 45.0543 0.62388 44.7603 1.29823 44.8292C1.97259 44.8982 2.34005 44.4236 2.48542 43.8417C2.68732 43.0021 3.01037 42.1302 2.94778 41.2988C2.88115 40.4167 3.44849 39.8022 3.51916 38.9992C3.71097 36.7686 5.39887 31.7964 6.32156 29.6408C7.87419 25.9805 10.0749 22.7543 12.5179 19.6699C12.6855 19.5016 12.8511 19.3333 13.0187 19.167C13.7697 19.1224 13.4447 18.5404 13.6668 17.928C13.7152 17.776 13.6183 17.8571 13.5194 17.928L13.7435 18.1511C13.8257 18.0567 13.9 17.9556 13.9656 17.849C13.9656 17.8307 13.8707 17.7476 13.6668 17.9199C13.5566 17.9682 13.4334 17.9776 13.3172 17.9467C13.201 17.9158 13.0987 17.8463 13.0267 17.7496C12.911 17.5676 12.8161 17.3731 12.7441 17.1696C12.5179 17.4191 12.1747 17.6178 12.0758 17.9017C12.0071 18.1045 12.2252 18.4391 12.3907 18.6581C12.5793 18.8541 12.7908 19.0263 13.0207 19.1711C12.8531 19.3374 12.6875 19.5057 12.52 19.674C11.9345 19.3374 11.3409 19.017 10.7755 18.6601C10.7008 18.6114 10.7755 18.3356 10.7755 18.1633C10.7755 17.9909 10.7755 17.7029 10.7352 17.6928C10.4968 17.662 10.2561 17.6545 10.0164 17.6705C10.0164 17.2649 9.92754 16.8107 10.0446 16.4295C10.1315 16.1476 10.4828 15.9468 10.715 15.7116C10.8321 15.961 10.929 16.4072 11.0703 16.4214C11.3752 16.4518 11.7023 16.2612 12.2514 16.3078C12.4029 16.3565 12.3241 16.2591 12.2514 16.1618L12.0293 16.3869C12.1192 16.4653 12.2151 16.5365 12.316 16.5998C12.3342 16.5998 12.417 16.5025 12.2454 16.2977C11.9587 15.8434 11.9203 15.2736 11.8416 15.2675C10.8623 15.1966 10.7533 14.3368 11.0683 13.919C11.7346 13.0329 11.785 12.0473 12.098 11.0801C12.4473 10.0134 13.4386 9.15768 14.1513 8.21068C14.2878 8.31295 14.4094 8.43374 14.5127 8.56961C14.7168 8.94202 14.8884 9.33146 15.0256 9.73358V9.61191C14.8922 9.64325 14.7642 9.69451 14.646 9.764C14.6137 9.7863 14.6985 9.96678 14.7288 10.0682C14.8534 9.98265 14.9553 9.86777 15.0256 9.73358C15.2154 9.51458 15.496 9.45577 15.5788 9.29354C15.936 8.63325 16.4312 8.05839 17.0305 7.60842C17.6119 7.33872 17.8381 5.82393 18.8779 7.08929C18.9304 7.15013 19.3099 6.98587 19.5078 6.87434C20.0025 6.59247 20.1135 6.13013 20.0368 5.59681C21.2926 5.35955 22.5707 5.94357 23.8729 5.17097C24.5574 4.7654 24.412 4.86071 24.1193 4.32942C23.9739 4.05972 22.8735 3.08433 24.4039 2.97077C24.3797 2.85113 24.3474 2.73554 24.3333 2.6159C24.3111 2.43745 24.301 2.26103 24.2868 2.08258C24.4524 2.08258 24.7492 2.03594 24.7633 2.08258C24.9652 2.71324 25.3266 3.14719 25.9929 3.28103C25.791 3.81029 27.0024 4.29494 26.0515 4.84854C26.2683 5.10085 26.5113 5.32925 26.7763 5.52989C26.8348 5.56842 27.1801 5.29264 27.277 5.09999C27.5496 4.54639 27.6485 3.87113 28.022 3.41487C28.5389 2.78624 28.7287 2.52262 27.697 2.56723C27.4951 2.56723 27.2649 2.41312 27.0509 2.32795C27.2564 2.22189 27.474 2.14153 27.699 2.08867C28.0261 2.04608 28.5066 2.21845 28.6742 2.05217C29.4152 1.34648 29.718 2.05217 30.144 2.41312C30.57 2.77407 30.7497 3.13097 30.2854 3.64401C30.1016 3.84679 30.0976 4.23614 30.0633 4.54437C29.9744 5.32508 30.0108 5.88679 30.9678 5.12027C31.1475 4.97629 31.6139 5.09796 31.8945 5.22166C32.0157 5.27439 32.0076 5.64345 32.0237 5.87259C32.0237 5.89896 31.7673 6.00846 31.6946 5.96385C31.4685 5.83204 31.2363 5.32914 31.0889 5.96385C31.0506 6.13013 31.3655 6.51136 31.5735 6.5722C31.8865 6.62064 32.2067 6.56359 32.4841 6.40997C32.9707 6.16257 33.5441 5.92937 33.8489 5.5157C34.5132 4.6194 35.2622 4.72282 35.9467 5.27236C36.4898 5.71645 37.0289 5.52381 37.8042 5.74484C37.9556 5.79351 37.8769 5.69617 37.8042 5.59884L37.5821 5.82393C37.6761 5.90648 37.7767 5.98109 37.8829 6.04699C37.8991 6.04496 37.9819 5.93749 37.8103 5.73267ZM56.4156 86.6268L56.1289 86.8641L56.353 87.0892C56.4352 86.9941 56.5095 86.8923 56.5751 86.785C56.5852 86.7667 56.4802 86.6856 56.1289 87.0892L55.715 87.2534C55.8523 87.367 55.9916 87.4785 57.3302 87.8962C57.0902 87.7817 56.8434 87.6822 56.5912 87.5981C56.4362 87.5809 56.2798 87.5809 56.1248 87.5981C56.2399 87.7644 56.3267 88.026 56.4802 88.0767C56.6336 88.1274 56.884 88.0037 56.1248 87.5981C56.1289 87.4238 56.1289 87.2554 56.4156 86.6268ZM77.4659 73.5453L77.1731 73.7846L77.3973 74.0076C77.4794 73.9132 77.5537 73.8122 77.6193 73.7055C77.6294 73.6872 77.5224 73.6041 77.1731 74.2327V74.0157C77.04 74.048 76.9122 74.0992 76.7936 74.1678C76.7633 74.1922 76.8461 74.3706 76.8764 74.472C76.9753 74.3868 77.0742 74.3098 77.4659 73.5453ZM79.6384 70.2764L79.4021 69.9824L79.178 70.2075C79.2727 70.2901 79.374 70.3647 79.4809 70.4305C79.4991 70.4407 79.5798 70.3332 79.178 69.9824V69.4795C79.3456 69.3132 79.5132 69.1449 80.1875 68.0803C80.1875 67.5774 80.2562 67.2996 80.1694 67.0846C80.0826 66.8697 79.8605 66.5412 79.6485 66.4925C79.3698 66.4296 79.0428 66.5939 78.7379 66.6588C78.7869 66.9518 78.8731 67.2374 78.9943 67.5084C79.2346 67.914 79.8382 68.0884 79.6989 68.7251C79.6848 68.788 79.8463 68.8975 79.9412 68.9644C80.0133 68.9288 80.071 68.8694 80.1048 68.7961C80.1552 68.4737 80.1795 68.1513 79.6868 68.9725L79.1841 69.4754L78.7682 69.6417C78.9014 69.7573 79.0407 69.8709 79.6384 70.2764ZM80.6479 36.5678L80.4096 36.2758L80.1875 36.5009C80.282 36.5828 80.3826 36.6574 80.4884 36.724C80.5066 36.7341 80.5893 36.6266 79.9634 36.2758H80.1875C80.1554 36.1422 80.1044 36.0138 80.0361 35.8946C80.0119 35.8622 79.8342 35.9473 79.7312 35.9777C79.8039 36.0771 79.8807 36.1765 80.6418 36.5678H80.6479ZM84.1489 31.0258L83.9126 30.7338L83.6885 30.9568C83.7832 31.0401 83.8845 31.1153 83.9914 31.1819C84.0096 31.1921 84.0923 31.0846 83.4664 30.7338H83.6885C83.6573 30.5998 83.6063 30.4713 83.5371 30.3525C83.5149 30.3201 83.3352 30.4053 83.2343 30.4357C83.311 30.5432 83.3857 30.6425 84.1489 31.0258ZM25.0096 8.39521C24.9309 8.29788 24.8501 8.19243 24.7714 8.10118L24.5493 8.32627C24.6433 8.40882 24.7439 8.48343 24.8501 8.54933C24.8683 8.55947 24.9511 8.45199 24.5493 8.10118C24.5493 7.9349 24.5493 7.76659 24.8522 6.38969C24.7381 6.63072 24.639 6.87859 24.5554 7.13188C24.5382 7.28686 24.5382 7.44329 24.5554 7.59828C24.7209 7.48269 24.9814 7.39549 25.0319 7.24341C25.0823 7.09132 24.9592 6.83784 24.5554 7.59828L24.1394 7.76456C24.4181 7.99017 24.7086 8.20069 25.0096 8.39521ZM78.6894 22.152L78.1766 22.4582C78.2533 22.5353 78.3522 22.6934 78.4068 22.6792C78.6547 22.5987 78.898 22.5046 79.1356 22.3974C79.0084 22.3284 78.8812 22.2575 78.1766 22.9165V22.6914C78.0433 22.7229 77.9153 22.7742 77.797 22.8435C77.7647 22.8678 77.8475 23.0463 77.8798 23.1477C77.9787 23.0706 78.0777 22.9936 78.6894 22.152ZM86.9674 57.4058H87.1915C87.1594 57.2721 87.1084 57.1437 87.0401 57.0246C87.0159 56.9921 86.8382 57.0773 86.7373 57.1077C86.814 57.2071 86.8907 57.3105 87.7286 57.9188L87.4258 57.4038C87.347 57.4808 87.1915 57.5802 87.2057 57.6349C87.2839 57.8843 87.3769 58.1288 87.4843 58.367C87.561 58.2413 87.6256 58.1155 86.9735 57.4058H86.9674ZM85.3845 60.2792C85.122 60.0623 85.0352 59.9305 84.9545 59.9325C84.7357 59.9547 84.519 59.9941 84.3064 60.0501C84.3346 60.1596 84.3649 60.3664 84.3912 60.3664C84.6617 60.3664 84.9302 60.3259 85.4774 59.46L85.2028 59.6973L85.4269 59.9203C85.5091 59.8259 85.5834 59.7249 85.649 59.6182C85.649 59.5999 85.542 59.5168 85.3906 60.2792H85.3845ZM15.8049 15.1459H16.029C15.9969 15.0122 15.9459 14.8838 15.8776 14.7646C15.8534 14.7322 15.6757 14.8173 15.5727 14.8478C15.6495 14.9471 15.7282 15.0505 17.2505 15.8292C16.8629 15.5616 16.5661 15.3466 16.2552 15.158C16.233 15.1438 16.0533 15.2959 16.0391 15.3811C15.9987 15.7866 15.9947 16.1922 16.5762 16.1435C16.7094 16.1334 16.8366 16.0199 15.8049 15.1459ZM85.754 48.6334C85.5609 48.4162 85.3465 48.2192 85.114 48.0453C85.0332 47.9967 84.8353 48.1366 84.692 48.1893C84.8313 48.4104 84.9302 48.6943 85.1301 48.8281C85.2351 48.8991 85.5137 48.7145 86.2083 47.8142L85.6934 48.1204C85.7722 48.1974 85.8711 48.3556 85.9236 48.3414C86.1723 48.2613 86.4163 48.1672 86.6545 48.0595C86.5273 47.9865 86.4001 47.9156 85.754 48.6334ZM86.4728 62.4368H86.6969C86.6648 62.3032 86.6138 62.1748 86.5454 62.0556C86.5212 62.0232 86.3436 62.1083 86.2406 62.1388C86.3794 62.3199 86.4816 62.5266 86.5414 62.7471C86.7433 63.2601 86.8624 63.5805 86.9876 63.9009C87.2477 63.6237 87.4753 63.3176 87.666 62.9884C87.7084 62.8972 87.3773 62.5524 87.1592 62.4571C87.0361 62.4105 86.7958 62.6254 86.4728 62.4368ZM86.2709 56.6717C86.1235 56.548 85.9902 56.3919 85.9498 56.4122C85.5262 56.5937 85.13 56.8339 84.7728 57.126C84.6718 57.2213 84.8535 57.6877 84.9908 57.9371C85.0877 58.1135 85.326 58.2129 85.5016 58.3427C85.756 57.785 86.0104 57.2294 86.4829 55.9295L86.1962 56.1709L86.4183 56.3959C86.5005 56.3008 86.5748 56.1991 86.6403 56.0918C86.6504 56.0776 86.5454 55.9965 86.2749 56.6717H86.2709ZM84.0782 67.9566C84.482 68.0661 84.3871 68.0235 84.379 68.0397C84.1428 68.4331 83.9147 68.8326 83.6845 69.2321C83.8501 69.3152 84.0641 69.5079 84.1691 69.4613C84.5991 69.2585 84.8111 70.4447 85.3037 69.6235C85.405 69.4936 85.5201 69.3753 85.647 69.2706C85.2432 68.9279 84.8252 68.5832 83.6845 69.7046V69.4795C83.5514 69.5118 83.4236 69.563 83.3049 69.6316C83.2746 69.6559 83.3574 69.8344 83.3877 69.9358C83.4907 69.8587 83.5876 69.7816 84.0822 67.9566H84.0782ZM84.6839 64.1139C84.7032 63.9529 84.7032 63.7902 84.6839 63.6292C84.5204 63.2845 85.0675 62.5991 84.3245 62.6153C84.1065 62.6153 83.844 63.3291 83.7047 63.7489C83.6249 64.0642 83.6249 64.3946 83.7047 64.71C83.7269 64.8175 83.9995 64.9128 84.1691 64.9432C84.2983 64.9615 84.5426 64.8844 84.5729 64.7993C84.6637 64.5052 84.6799 64.1909 83.6865 65.1805V64.9514C83.5534 64.9836 83.4256 65.0348 83.3069 65.1034C83.2766 65.1278 83.3594 65.3062 83.3897 65.4096C83.4907 65.3306 83.5876 65.2535 84.692 64.1139H84.6839ZM17.6766 11.8222C17.8926 11.5586 18.0238 11.4714 18.0218 11.3903C17.9992 11.1733 17.9601 10.9584 17.9047 10.7475C17.7937 10.7779 17.5897 10.8063 17.5897 10.8347C17.5897 11.1044 17.6301 11.3761 17.941 14.6592C18.3711 14.5517 19.106 14.9451 19.0051 14.0975C18.9506 13.6432 18.4943 13.262 18.9909 12.7469C19.0616 12.6739 18.6053 11.8811 18.2479 11.6864C18.046 11.5789 17.5574 12.023 17.198 12.2197C17.3569 12.5202 17.5371 12.8089 17.7371 13.0836C18.2338 13.6919 18.2964 14.0833 17.3535 14.1664C17.3051 14.1664 17.2828 14.4625 17.2505 14.6186C17.4908 14.6247 17.7311 14.6389 17.6766 11.8222ZM78.9559 77.5239H79.178C79.1468 77.3899 79.0958 77.2614 79.0266 77.1427C79.0024 77.1102 78.8247 77.1954 78.7238 77.2258C78.8344 77.377 78.9957 77.4829 79.178 77.5239V78.5378C79.0449 78.5701 78.9171 78.6213 78.7985 78.6899C78.7682 78.7142 78.851 78.8927 78.8812 78.9941C79.0318 78.883 79.1372 78.7209 79.178 78.5378C79.5536 78.8298 79.9856 79.4219 80.2885 79.3489C81.2031 79.1462 81.6836 79.2861 81.7018 80.302C81.7018 80.3487 81.9219 80.3872 82.037 80.4318C82.0834 80.2858 82.1965 80.1236 82.1662 79.9958C82.0945 79.619 81.968 79.2548 81.7906 78.915C81.4284 78.3274 81.0299 77.7633 80.5974 77.2258C80.553 77.1711 80.2663 77.3171 80.0906 77.3536C79.7156 77.4316 79.3369 77.4905 78.9559 77.53V77.5239ZM14.4845 16.9466L14.2462 16.6546L14.0241 16.8797C14.1213 16.9627 14.2254 17.0373 14.3351 17.1027C14.3532 17.1027 14.436 17.0054 12.9742 13.4688C13.16 14.2313 13.3558 14.9917 13.5275 15.7562C13.6082 16.1131 13.3437 16.6485 14.0342 16.6546C13.9434 16.1334 14.1978 15.7664 14.4602 15.3405C14.5753 15.158 14.1089 14.6734 14.0665 14.3063C14.0812 14.1696 14.1302 14.0389 14.209 13.9265C14.2877 13.8141 14.3936 13.7236 14.5168 13.6635C14.969 13.5236 15.4657 13.5317 15.9442 13.479C15.5242 13.2077 15.1253 12.9047 14.751 12.5725C14.4966 12.317 14.3855 11.9257 14.1635 11.6296C14.117 11.5688 13.8505 11.6296 13.7152 11.6985C13.6648 11.7229 13.6769 11.9236 13.695 12.0372C13.7297 12.2178 13.7735 12.3965 13.8263 12.5725C13.2266 12.5725 12.8773 12.7753 14.4845 16.9466ZM61.5964 84.8646L61.3581 84.5726L61.136 84.7977C61.23 84.8803 61.3306 84.9549 61.4369 85.0208C61.455 85.0309 61.5378 84.9234 59.5309 85.2236C59.8439 85.0025 60.0135 84.8038 60.2194 84.749C61.7175 84.3556 62.299 82.8895 63.3893 82.0196C63.5528 81.8878 63.4902 81.4741 63.5326 81.1902C63.25 81.2125 62.9471 81.172 62.6907 81.2652C62.0163 81.5126 61.3622 81.8107 61.6226 82.7597C61.6347 82.8104 61.344 82.997 61.3379 82.9889C60.7423 82.3319 60.7141 82.6685 60.5667 83.3032C60.5202 83.506 59.7086 83.4877 59.2967 83.6804C59.0403 83.8 58.6587 84.238 58.7112 84.3394C58.8808 84.674 59.222 84.9153 61.5964 84.8646ZM54.663 86.2841C55.3233 85.7021 54.9195 85.2702 54.4147 85.6393C53.7908 86.0834 53.2295 86.0225 52.5976 86.0955C52.4949 86.1165 52.3989 86.1627 52.3183 86.2299C52.2376 86.2971 52.1747 86.3833 52.1352 86.4808C52.1344 86.5922 52.1576 86.7025 52.2032 86.804C52.2489 86.9055 52.3159 86.9959 52.3997 87.0689C52.5612 87.2027 52.9469 87.1419 53.0297 87.2859C53.8474 88.6932 53.7828 88.6425 54.6449 87.8374C55.3011 87.2453 55.194 86.8032 54.663 86.2882V86.2841ZM29.2859 2.59157C29.2092 2.72743 29.084 2.85924 29.0679 2.99713C29.0235 3.96035 29.2981 5.02496 28.2401 5.66981C28.2127 5.72128 28.1984 5.77874 28.1984 5.83711C28.1984 5.89547 28.2127 5.95293 28.2401 6.0044C28.658 6.38158 29.0477 6.81554 29.5484 7.05888C29.8169 7.18663 30.4327 7.32249 30.5297 6.72226C30.5599 6.53975 30.243 6.1423 30.0491 6.11391C29.3728 6.02468 29.5787 5.54409 29.5666 5.18111C29.5403 4.43081 29.5666 3.67848 29.5464 2.92819C29.5444 2.81463 29.3768 2.70513 29.2859 2.59157ZM86.5293 49.7284C85.752 50.0509 85.0796 50.134 84.9605 50.4321C84.8051 50.8174 85.0877 51.3852 85.1967 51.8698C85.2388 52.0194 85.2992 52.1631 85.3764 52.2977C85.3764 52.3139 85.4915 52.2977 85.546 52.2693C86.1215 52.0219 86.8039 50.8255 86.6908 50.2415C86.6523 50.066 86.5983 49.8943 86.5293 49.7284ZM84.4578 71.6695C83.7653 72.2779 83.204 72.6348 82.8668 73.1357C82.6871 73.4033 83.206 73.9468 82.7638 74.3361C82.9859 74.395 83.3433 74.5694 83.4079 74.4923C83.8117 74.0279 84.1166 73.4905 84.4961 73.0099C84.6314 72.8376 85.0554 72.6733 85.0393 72.6368C84.8716 72.2992 84.6772 71.9758 84.4578 71.6695ZM19.0636 8.62841L18.5346 8.9407C18.6941 9.16376 18.8557 9.38682 19.0131 9.61191C19.5018 10.3095 20.3497 9.44968 20.8626 10.0398C20.9231 9.89783 21.0645 9.73561 21.0281 9.61394C20.8121 8.71967 20.1478 8.54325 19.0636 8.62841ZM83.7733 55.1306C84.2014 54.6054 84.7102 54.1958 84.6415 54.0295C84.4558 53.5894 84.0358 53.2447 83.6683 52.8979C83.6441 52.8736 83.1959 53.1616 83.2141 53.2447C83.3413 53.8206 83.5391 54.3803 83.7733 55.1306ZM67.5969 7.77875C68.0406 7.56855 68.4727 7.33433 68.8911 7.07713C68.9658 7.02846 68.9456 6.69995 68.8588 6.5722C68.7417 6.39577 68.4005 6.14027 68.3621 6.16663C67.9785 6.48808 67.6225 6.8415 67.2981 7.22313C67.2618 7.2718 67.4354 7.50297 67.5969 7.77875ZM41.3314 5.14258C41.7352 4.63968 42.129 4.19152 42.4621 3.70485C42.4863 3.66835 42.1491 3.34795 41.9472 3.20397C41.8869 3.19297 41.8247 3.19742 41.7665 3.21692C41.7082 3.23641 41.6558 3.27031 41.6141 3.3155C41.4141 3.7336 41.2434 4.16522 41.1033 4.60723C41.069 4.71673 41.2143 4.88301 41.3314 5.14055V5.14258ZM22.7847 11.5363L22.0376 10.6177C21.8721 10.8205 21.6015 11.0233 21.5652 11.2565C21.5127 11.6073 21.3835 12.167 22.0457 12.1041C22.2638 12.0838 22.4556 11.7999 22.7847 11.5363ZM70.3529 88.1234C70.0702 87.8658 69.9269 87.6326 69.7633 87.6164C69.5998 87.6002 69.1899 87.7604 69.1839 87.8597C69.1895 88.2469 69.2362 88.6323 69.3232 89.0095C69.3232 89.0217 69.4564 89.042 69.4847 89.0095C69.7552 88.7479 70.0177 88.4701 70.3529 88.1234ZM40.1887 2.03797C39.9868 1.88386 39.8111 1.63241 39.583 1.58577C39.2983 1.53507 38.9773 1.66282 38.6784 1.71352L39.8273 2.56521L40.1887 2.03797ZM76.8057 76.2687C76.6543 75.6887 76.5775 75.3906 76.4988 75.0925C76.3898 75.2406 76.1919 75.3866 76.1899 75.5366C76.2115 75.8437 76.2628 76.148 76.3433 76.4451L76.8057 76.2687ZM86.4142 67.8998L85.8085 68.1229L86.4627 68.9766C86.5454 68.8509 86.715 68.7089 86.6949 68.6014C86.6279 68.3577 86.5338 68.1223 86.4142 67.8998ZM83.9591 36.8152L84.6112 36.1055C84.4699 35.994 84.2276 35.7689 84.2074 35.7912C84.0057 35.9612 83.8373 36.1675 83.7107 36.3995C83.6724 36.4624 83.8501 36.6408 83.9591 36.8152ZM20.0731 13.2336C20.2446 13.0477 20.3956 12.8438 20.5234 12.6253C20.5678 12.534 20.4345 12.3556 20.382 12.2197C20.1021 12.4401 19.8221 12.6618 19.5421 12.8848L20.0731 13.2336ZM19.3564 11.7046L19.9621 11.4532L19.2716 10.642C19.1949 10.7718 19.0333 10.9199 19.0555 11.0253C19.1308 11.2621 19.2317 11.4899 19.3564 11.7046ZM77.4376 71.8926L77.2539 72.3266C77.3912 72.3833 77.5467 72.5131 77.6577 72.4807C77.8206 72.4039 77.9678 72.2973 78.0918 72.1664L77.4376 71.8926ZM85.6753 70.8787C85.5602 70.6942 85.4875 70.4914 85.4269 70.4954C85.2039 70.5263 84.9842 70.5779 84.7707 70.6496C84.8333 70.7611 84.8919 70.9598 84.9605 70.9639C85.2007 70.9612 85.44 70.9354 85.6753 70.8868V70.8787ZM64.6249 5.17705C64.39 5.12515 64.1507 5.09595 63.9102 5.08985C63.8415 5.08985 63.783 5.29264 63.7204 5.40417C63.9341 5.47554 64.1537 5.52779 64.3766 5.56031C64.4371 5.5745 64.5098 5.37172 64.6249 5.18719V5.17705ZM27.0933 8.04034L26.8046 7.59828C26.6993 7.79584 26.6205 8.00654 26.5704 8.22488C26.5582 8.34249 26.7198 8.47835 26.8046 8.60611C26.9055 8.40738 27.0085 8.20865 27.0933 8.04034ZM28.4561 8.58583C28.507 8.34979 28.5354 8.10942 28.5409 7.86798C28.5409 7.79903 28.339 7.74225 28.228 7.67939C28.1564 7.89376 28.105 8.11441 28.0745 8.33843C28.0644 8.39724 28.2663 8.47024 28.4561 8.58583ZM87.4621 54.9927L88.1203 54.7189C87.9963 54.588 87.8491 54.4814 87.6862 54.4046C87.5711 54.3742 87.4156 54.502 87.2824 54.5587L87.4621 54.9927ZM85.2412 46.273L84.9423 45.8289C84.8376 46.0267 84.7589 46.2374 84.7081 46.4555C84.696 46.5711 84.8596 46.707 84.9423 46.8347C85.0433 46.6401 85.1463 46.4373 85.2331 46.2751L85.2412 46.273ZM85.7722 43.6145C85.5703 43.4848 85.441 43.3205 85.3239 43.3347C85.1066 43.3844 84.8968 43.4628 84.7001 43.5679C84.8273 43.6531 84.9545 43.8072 85.0796 43.8052C85.3141 43.7683 85.5437 43.705 85.7641 43.6166L85.7722 43.6145ZM81.7341 42.2498L81.4434 41.8077C81.3387 42.0054 81.2607 42.2161 81.2112 42.4343C81.1971 42.5499 81.3606 42.6858 81.4434 42.8135C81.5363 42.6169 81.6372 42.4181 81.724 42.2518L81.7341 42.2498ZM83.3009 41.5705L82.8688 41.3839C82.8103 41.5218 82.6831 41.68 82.7133 41.7895C82.7912 41.9529 82.8971 42.1011 83.0263 42.2275C83.0748 42.0957 83.1313 41.9558 83.2908 41.5705H83.3009ZM80.9568 39.6927L80.771 40.1267C80.9104 40.1835 81.0658 40.3112 81.1748 40.2808C81.3377 40.204 81.4849 40.0974 81.6089 39.9665L80.9568 39.6927ZM80.6721 34.1588C80.559 33.9742 80.4843 33.7715 80.4258 33.7755C80.2027 33.8061 79.983 33.8577 79.7696 33.9296C79.8322 34.0412 79.8887 34.2399 79.9594 34.2439C80.1957 34.2386 80.431 34.2108 80.662 34.1608L80.6721 34.1588ZM80.7953 18.9034C80.6358 18.5181 80.5792 18.3802 80.5207 18.2423C80.4117 18.3863 80.2501 18.5161 80.2077 18.6783C80.1775 18.7939 80.3046 18.9501 80.3632 19.0839L80.7953 18.9034ZM45.7773 1.48843L46.1004 1.30998C46.0438 1.25523 45.9752 1.1437 45.9348 1.15384C45.817 1.19324 45.704 1.24561 45.5976 1.30998L45.7773 1.48843ZM57.0536 1.894L56.8759 1.56954C56.8194 1.62632 56.7103 1.69324 56.7184 1.73582C56.7572 1.85402 56.81 1.96705 56.8759 2.07244L57.0536 1.894ZM35.0018 2.24481L34.8221 2.06433C34.7573 2.17072 34.7051 2.28438 34.6666 2.40298C34.6666 2.44354 34.7676 2.51248 34.8221 2.56723L35.0018 2.24481ZM36.504 2.89169C36.4474 2.78624 36.3868 2.67674 36.3263 2.56723C36.2718 2.62401 36.1607 2.69296 36.1688 2.73352C36.2084 2.85138 36.2612 2.96431 36.3263 3.07014L36.504 2.89169ZM37.5135 3.25061L37.3358 3.07014C37.2703 3.17643 37.2174 3.29009 37.1783 3.40878C37.1682 3.44934 37.2793 3.51829 37.3358 3.57506C37.3883 3.46556 37.4489 3.35606 37.5074 3.24453L37.5135 3.25061ZM61.0694 3.25061L60.8917 3.07014C60.8262 3.17643 60.7734 3.29009 60.7343 3.40878C60.7343 3.44934 60.8352 3.51829 60.8917 3.57506C60.9442 3.46556 61.0048 3.35606 61.0634 3.24453L61.0694 3.25061ZM60.706 5.27236L60.8857 5.59681C60.9402 5.54003 61.0512 5.47311 61.0411 5.43053C61.0023 5.31272 60.9501 5.19977 60.8857 5.09391L60.706 5.27236ZM38.7653 6.01657C38.8723 5.95979 38.9793 5.89896 39.0883 5.83812C39.0338 5.78134 38.9651 5.67184 38.9248 5.67995C38.8063 5.71843 38.693 5.77157 38.5876 5.83812L38.7653 6.01657ZM22.3708 7.5273L22.5505 7.34683C22.4442 7.28245 22.3311 7.23009 22.2133 7.19068C22.1729 7.18054 22.1043 7.29207 22.0477 7.34683L22.3708 7.5273ZM24.2283 9.68289C24.1617 9.75183 24.1051 9.80658 24.0486 9.86336C24.1547 9.92811 24.2678 9.9805 24.3858 10.0195C24.4262 10.0296 24.4948 9.91811 24.5513 9.86336L24.2283 9.68289ZM20.6142 10.7962C20.6708 10.9016 20.7313 11.0111 20.7919 11.1206C20.8464 11.0638 20.9575 10.9969 20.9474 10.9564C20.9089 10.8378 20.8567 10.7241 20.7919 10.6177L20.6142 10.7962ZM12.5927 11.2991C12.6492 11.4045 12.7098 11.514 12.7703 11.6235C12.8269 11.5688 12.9359 11.4998 12.9278 11.4593C12.8895 11.3403 12.8366 11.2265 12.7703 11.1206L12.5927 11.2991ZM70.5851 13.9596C70.5285 13.8541 70.468 13.7446 70.4074 13.6372C70.3529 13.6919 70.2418 13.7608 70.2519 13.8014C70.2912 13.9197 70.3433 14.0333 70.4074 14.1401L70.5851 13.9596ZM80.2542 22.0101C80.3208 22.077 80.3753 22.1338 80.4318 22.1885C80.4963 22.0826 80.5485 21.9697 80.5873 21.8519C80.5974 21.8093 80.4864 21.7424 80.4318 21.6856C80.3713 21.7951 80.3107 21.9006 80.2542 22.0101ZM76.9955 22.2615L76.6724 22.44C76.729 22.4967 76.7956 22.6062 76.838 22.5981C76.9557 22.5592 77.0682 22.5061 77.1731 22.44L76.9955 22.2615ZM78.75 23.3748C78.8086 23.4802 78.8671 23.5897 78.9277 23.6972C78.9842 23.6425 79.0932 23.5735 79.0852 23.533C79.0461 23.4143 78.9932 23.3006 78.9277 23.1943L78.75 23.3748ZM85.7661 38.4679C85.8247 38.5734 85.8852 38.6808 85.9438 38.7903C86.0003 38.7356 86.1114 38.6666 86.1013 38.6261C86.063 38.5071 86.0101 38.3933 85.9438 38.2874L85.7661 38.4679ZM86.9472 38.7903C86.8907 38.8471 86.7817 38.9161 86.7897 38.9566C86.8289 39.0753 86.8817 39.189 86.9472 39.2953C87.0038 39.2385 87.1128 39.1695 87.1047 39.129C87.066 39.0101 87.0131 38.8964 86.9472 38.7903ZM81.8633 44.2533L82.1864 44.0728C82.1298 44.0181 82.0612 43.9066 82.0208 43.9167C81.903 43.9561 81.79 44.0085 81.6836 44.0728L81.8633 44.2533ZM87.5166 44.9002L87.1936 45.0807C87.2501 45.1354 87.3167 45.2469 87.3591 45.2368C87.4764 45.1978 87.5889 45.1454 87.6943 45.0807L87.5166 44.9002ZM1.91 45.5085L1.73232 45.3301C1.66646 45.4355 1.61357 45.5485 1.57484 45.6667C1.57484 45.7093 1.67579 45.7762 1.73232 45.833L1.91 45.5085ZM87.5166 48.7794L87.6943 48.5989C87.5889 48.5342 87.4764 48.4818 87.3591 48.4428C87.3167 48.4327 87.2501 48.5442 87.1936 48.5989L87.5166 48.7794ZM44.2691 53.3055L44.5922 53.1271C44.5356 53.0723 44.469 52.9608 44.4266 52.9709C44.3093 53.0099 44.1968 53.0623 44.0914 53.1271L44.2691 53.3055ZM86.2648 60.2427L86.4445 60.4232C86.5086 60.3164 86.5607 60.2029 86.6 60.0846C86.6101 60.044 86.499 59.9751 86.4445 59.9183L86.2648 60.2427ZM80.5025 64.3755L80.6802 64.195C80.5743 64.1299 80.4611 64.0774 80.343 64.0388C80.3026 64.0287 80.234 64.1402 80.1795 64.195L80.5025 64.3755ZM78.1019 66.2796C78.0433 66.1741 77.9828 66.0667 77.9242 65.9572C77.8677 66.0119 77.7566 66.0809 77.7667 66.1214C77.8051 66.2404 77.858 66.3542 77.9242 66.4601L78.1019 66.2796ZM76.6704 69.7269C76.6139 69.6721 76.5472 69.5606 76.5049 69.5707C76.3876 69.6097 76.2751 69.6621 76.1697 69.7269C76.2242 69.7837 76.2928 69.8932 76.3332 69.8851C76.4522 69.848 76.5662 69.7962 76.6724 69.7309L76.6704 69.7269ZM78.4996 70.5684L78.1766 70.7489C78.2311 70.8037 78.2998 70.9152 78.3401 70.9051C78.4582 70.8664 78.5714 70.814 78.6773 70.7489L78.4996 70.5684ZM76.8501 71.4303L77.1731 71.2518C77.1186 71.195 77.05 71.0855 77.0096 71.0937C76.8911 71.1321 76.7779 71.1853 76.6724 71.2518L76.8501 71.4303ZM79.6081 75.8408L79.4284 75.5163C79.3739 75.5731 79.2628 75.6421 79.2729 75.6826C79.3122 75.8009 79.3643 75.9145 79.4284 76.0213L79.6081 75.8408ZM62.2102 84.2482C62.2687 84.3536 62.3293 84.4631 62.3878 84.5726C62.4444 84.5179 62.5554 84.4489 62.5453 84.4084C62.507 84.2894 62.4541 84.1756 62.3878 84.0697C62.3333 84.1265 62.2768 84.1813 62.2102 84.2482ZM57.0536 84.7511L56.8759 84.5726C56.8096 84.6785 56.7567 84.7923 56.7184 84.9113C56.7184 84.9518 56.8194 85.0208 56.8759 85.0755L57.0536 84.7511ZM56.3732 85.5744C56.3186 85.6311 56.2076 85.7001 56.2177 85.7407C56.2564 85.8588 56.3093 85.9719 56.3752 86.0773C56.4297 86.0225 56.5407 85.9536 56.5306 85.913C56.4915 85.7943 56.4387 85.6807 56.3732 85.5744ZM69.093 86.9046L68.9133 86.5822C68.8588 86.637 68.7478 86.7059 68.7579 86.7465C68.7963 86.8651 68.8485 86.9787 68.9133 87.0851L69.093 86.9046ZM52.8762 89.0967C52.8197 89.1535 52.7106 89.2204 52.7187 89.263C52.7575 89.3812 52.8103 89.4942 52.8762 89.5996C52.9307 89.5449 53.0418 89.4759 53.0317 89.4354C52.9906 89.3173 52.935 89.2049 52.8661 89.1008L52.8762 89.0967Z" fill="#FFAF00"/>
</g>
<defs>
<clipPath id="clip0">
<rect width="90" height="94" fill="white"/>
</clipPath>
</defs>
</svg>
