<?xml version="1.0"?>
<svg xmlns="http://www.w3.org/2000/svg" xmlns:xlink="http://www.w3.org/1999/xlink" xmlns:svgjs="http://svgjs.com/svgjs" version="1.1" width="512" height="512" x="0" y="0" viewBox="0 0 512 512" style="enable-background:new 0 0 512 512" xml:space="preserve" class=""><g>
<g xmlns="http://www.w3.org/2000/svg">
	<g>
		<path d="M436.991,75.046c-48.344-48.345-112.622-74.97-180.992-74.97c-59.432,0-117.011,20.702-162.734,58.391L42.018,7.22    c-5.117-5.123-12.199-7.723-19.421-7.139C15.376,0.666,8.789,4.409,4.521,10.349c-6.923,9.637-5.492,23.557,3.33,32.378    l50.577,50.577c-37.697,45.733-58.39,103.268-58.39,162.735c0,68.37,26.625,132.648,74.97,180.992    C123.352,485.376,187.629,512,255.999,512s132.647-26.625,180.992-74.97c48.345-48.344,74.97-112.622,74.97-180.992    S485.336,123.39,436.991,75.046z M18.457,32.12c-3.624-3.625-4.394-9.343-1.753-13.02c1.718-2.391,4.241-3.836,7.105-4.068    c2.822-0.228,5.597,0.787,7.599,2.792l99.892,99.892c17.916,17.916,41.49,29.379,68.59,33.501    c-20.669,11.073-37.654,28.044-48.717,48.684c-4.126-27.088-15.587-50.652-33.497-68.561L18.457,32.12z M346.462,167.476    l9.333,7.916l-9.301,5.647c-3.412,2.071-5.783,5.353-6.679,9.241s-0.199,7.877,1.962,11.231l7.759,12.043    c4.335,6.728,13.089,8.746,19.932,4.591l8.974-5.448l2.716,11.932c0.535,2.351,2.168,4.301,4.388,5.241    c0.938,0.397,1.933,0.594,2.925,0.594c1.354,0,2.703-0.367,3.893-1.089c1.524-0.925,2.97-1.943,4.35-3.028    c12.087,2.448,33.567,7.209,47.885,10.872c0.679,6.845,0.979,13.755,0.911,20.701c-19.485-6.236-38.594-9.967-55.675-13.294    c-25.464-4.962-49.966-11.108-56.769-22.375c-5.981-9.913-6.112-23.957-4.384-43.402c1.374-15.466,2.413-38.756-4.406-62.349    c-5.317-18.397-14.477-33.645-27.34-45.607c12.185,2.696,24.154,6.617,35.724,11.747c11.596,19.378,17.088,42.834,16.76,71.564    c-0.672,0.361-1.339,0.74-1.999,1.141c-2.061,1.251-3.395,3.417-3.584,5.82C343.647,163.569,344.624,165.917,346.462,167.476z     M365.949,164.335c10.859-1.512,22.097,3.388,28.137,13.338c6.041,9.95,5.203,22.183-1.149,31.118    c-1.07-4.531-4.259-8.311-8.549-10.128c-1.828-0.774-3.772-1.157-5.711-1.157c-2.651,0-5.294,0.716-7.614,2.124l-9.094,5.521    l-7.391-11.471l9.406-5.711c4.017-2.439,6.637-6.692,7.007-11.376C371.356,171.947,369.474,167.375,365.949,164.335z     M407.787,213.328c1.831-3.322,3.244-6.901,4.169-10.684c0.649-2.655,1.036-5.333,1.182-8.004    c7.303,1.475,15.324,3.199,23.929,5.323c2.151,6.954,3.9,14.038,5.239,21.219C431.33,218.493,418.182,215.538,407.787,213.328z     M151.995,286.904c-3.534,0.35-7.137,0.028-10.65-0.986c-7.263-2.096-13.275-6.895-16.929-13.513    c-3.654-6.618-4.512-14.263-2.416-21.526c1.014-3.514,2.661-6.735,4.84-9.538c0.878,4.579,3.911,8.496,8.129,10.491    c4.248,2.01,9.24,1.854,13.355-0.418l9.313-5.142l6.913,11.766l-9.633,5.318c-4.114,2.271-6.906,6.413-7.469,11.079    C146.889,279.068,148.588,283.722,151.995,286.904z M113.295,178.251c4.643-2.347,9.472-4.398,14.375-6.151    c2.573,5.763,4.676,11.842,6.291,18.197c-4.09,1.477-8.103,3.195-11.974,5.152c-29.577,14.953-45.01,40.383-55.448,68.298    c-0.686-16.749,0.843-33.569,4.595-49.995c0.042-0.053,0.089-0.1,0.13-0.154C82.665,198.347,96.413,186.785,113.295,178.251z     M81.926,180.807c6.112-14.114,14.028-27.645,23.747-40.257l1.396,1.396c5.078,5.078,9.547,10.706,13.417,16.793    c-4.757,1.788-9.435,3.838-13.959,6.125C97.569,169.393,89.406,174.688,81.926,180.807z M128.754,208.835    c2.614-1.321,5.307-2.507,8.044-3.576c0.228,1.781,0.426,3.575,0.583,5.389c0.186,2.141,0.476,4.312,0.861,6.453    c0.587,3.263,1.438,6.513,2.524,9.667c-0.272,1.074-0.524,2.155-0.767,3.24l-0.737-3.987c-0.438-2.371-1.989-4.386-4.168-5.417    c-2.18-1.031-4.721-0.952-6.832,0.214c-10.125,5.59-17.468,14.789-20.675,25.902c-1.184,4.1-1.747,8.28-1.712,12.431    c-6.448,12.398-10.903,26.387-14.731,39.743c-1.142,3.982,1.161,8.135,5.143,9.276c0.69,0.198,1.386,0.292,2.07,0.292    c3.261,0,6.262-2.144,7.206-5.435c1.963-6.849,4.206-14.242,6.859-21.431c3.918,6.315,9.306,11.418,15.695,14.961    c-2.52,7.038-5.057,15.313-8.015,26.111c-4.089,14.931-8.622,31.481-14.972,48.073c-16.704-21.898-28.008-46.557-33.913-72.194    C81.636,261.298,93.927,226.441,128.754,208.835z M272.588,141.57l2.256,10.397l-13.254,3.249l-2.333-10.754    c-0.997-4.592-4.163-8.455-8.471-10.332c-1.867-0.813-3.861-1.216-5.851-1.216c-2.569,0-5.13,0.672-7.399,1.997    c0.677-3.486,2.019-6.845,3.999-9.921c4.09-6.357,10.411-10.741,17.799-12.343c11.376-2.468,22.667,2.311,29.044,11.228    c-4.637-0.464-9.245,1.318-12.361,4.781C272.874,132.15,271.592,136.977,272.588,141.57z M275.171,232.413l7.395,10.723    c0.311,0.451,0.208,1.056-0.234,1.379l-13.741,10.028c-0.227,0.165-0.481,0.226-0.759,0.178c-0.277-0.047-0.498-0.188-0.657-0.419    l-7.653-11.097c-2.912-4.223-7.712-6.808-12.84-6.915c-0.11-0.002-0.221-0.003-0.331-0.003c-5.008,0-9.768,2.368-12.787,6.378    l-1.697,2.253c-4.108-14.096,1-29.864,13.733-38.644c12.733-8.781,29.287-7.95,41.002,0.899l-2.71,0.785    c-4.927,1.427-8.897,5.164-10.62,9.996C271.549,222.785,272.259,228.191,275.171,232.413z M252.037,258.775    c-4.005,0.277-8.031,0.364-12.049,0.295l5.558-7.383c0.205-0.272,0.486-0.407,0.822-0.399c0.34,0.007,0.611,0.153,0.804,0.433    L252.037,258.775z M244.697,148.103l2.307,10.634c0.846,3.899,3.175,7.211,6.559,9.326c2.363,1.476,5.024,2.234,7.735,2.234    c1.105,0,2.218-0.137,3.322-0.392c-8.546,18.282-18.77,22.78-46.28,18.241c-11.304-1.866-23.717-3.907-36.916-4.447    c13.13-13.536,29.926-23.499,48.835-28.316c3.781-1.049,4.698-1.508,6.256-2.427L244.697,148.103z M215.898,202.945    c3.603,0.594,6.993,1.034,10.193,1.324c-4.301,5.501-7.327,11.787-9.02,18.396c-1.432-0.233-2.867-0.469-4.307-0.706    c-8.006-1.321-16.284-2.687-24.601-3.468c-4.12-0.388-7.781,2.641-8.169,6.765c-0.387,4.124,2.642,7.781,6.766,8.169    c7.795,0.733,15.811,2.055,23.562,3.334c1.748,0.289,3.49,0.575,5.226,0.855c0.335,6.865,2.091,13.719,5.34,20.111    c-4.664-0.545-9.249-1.218-13.706-1.953c-9.356-1.544-19.162-2.896-28.454-2.771c-0.293-0.773-0.64-1.532-1.068-2.26    l-7.257-12.352c-3.239-5.513-9.419-8.126-15.347-6.987c2.876-11.834,7.783-22.865,14.316-32.722    C185.807,197.99,201.763,200.612,215.898,202.945z M172.104,271.001c1.388-0.766,2.611-1.737,3.658-2.861    c8.995-0.556,19.637,0.891,28.977,2.432c8.522,1.406,21.974,3.626,37.369,3.626c27.251,0,60.562-6.984,83.27-37.753    c3.963,3.876,9.098,7.14,15.333,9.986c-42.111,59.152-107.236,48.412-139.11,43.152l-12.685-2.09    c-5.279-0.868-10.458-0.042-14.948,2.116c-0.118-1.914-0.954-3.733-2.39-5.056l-8.999-8.293L172.104,271.001z M313.741,177.52    c-1.651,18.58-1.656,33.151,2.967,45.224c-0.21,0.246-0.412,0.502-0.594,0.781c-5.374,8.246-11.574,14.72-18.352,19.753    c-0.085-2.989-1.012-5.993-2.849-8.658l-7.395-10.723c-0.193-0.28-0.233-0.585-0.119-0.905c0.114-0.321,0.338-0.531,0.666-0.626    l14.495-4.199c2.315-0.671,4.167-2.414,4.978-4.685c0.81-2.271,0.479-4.792-0.89-6.777c-8.149-11.817-20.514-19.024-33.698-21.022    c3.778-5.74,6.949-12.746,9.974-20.968c5.196-3.162,8.013-9.315,6.648-15.606l-2.226-10.259l12.166,1.321    c2.398,0.258,4.772-0.648,6.385-2.44c1.612-1.792,2.265-4.25,1.754-6.606c-3.484-16.06-15.515-28.107-30.284-32.408    c-8.66-8.04-20.283-14.131-35.525-18.603c-10.219-2.999-17.61-6.822-22.644-10.105c14.649-2.892,29.567-4.037,44.429-3.434    c0.145,0.08,0.288,0.162,0.439,0.233C302.513,84.797,318.762,121.011,313.741,177.52z M237.618,94.507    c4.97,1.458,9.454,3.09,13.486,4.908c-7.578,2.62-14.21,7.252-19.28,13.471c-13.876-4.231-38.009-15.802-53.528-29.837    c7.392-3.327,14.95-6.156,22.623-8.484C205.364,78.976,216.717,88.374,237.618,94.507z M224.368,126.236    c-1.466,4.242-2.249,8.674-2.334,13.162c-1.647-0.432-3.305-0.815-4.972-1.116c-2.139-0.385-4.31-0.675-6.453-0.861    c-27.509-2.393-51.266-12.875-68.703-30.312l-1.396-1.396c7.553-5.821,15.434-10.998,23.575-15.525    C180.893,107.391,208.296,120.75,224.368,126.236z M426.385,426.424C380.873,471.936,320.362,497,255.999,497    c-64.363,0-124.874-25.064-170.386-70.576c-45.512-45.512-70.576-106.023-70.576-170.386c0-55.498,19.152-109.203,54.055-152.07    l25.885,25.886c-59.622,75.872-57.9,183.336,4.384,257.677c3.429,4.093,6.263,5.093,7.949,5.157    c2.883,0.109,5.637-1.675,6.871-4.487c9.368-21.336,15.223-42.712,20.388-61.571c2.879-10.509,5.321-18.475,7.727-25.173    c2.315,0.378,4.64,0.589,6.958,0.589c4.739,0,9.441-0.802,13.953-2.356c-0.771,1.365-1.43,2.816-1.944,4.355    c-2.946,8.82-5.808,19.276-8.109,27.679c-3.409,12.445-7.272,26.55-12.334,41.125c-1.359,3.913,0.711,8.187,4.625,9.546    c0.814,0.283,1.645,0.417,2.461,0.417c3.104,0,6.008-1.943,7.084-5.041c5.227-15.05,9.161-29.413,12.633-42.087    c2.251-8.224,5.053-18.458,7.868-26.887c1.525-4.566,6.148-7.3,10.987-6.504l12.683,2.089    c32.766,5.407,108.697,17.931,156.067-52.571c9.143,2.796,19.757,5.2,31.739,7.535c17.784,3.465,37.826,7.377,57.765,14.104    c-4.021,44.045-23.225,85.15-54.696,116.622c-33.765,33.765-78.617,53.418-126.294,55.339    c-31.919,1.284-63.214-5.43-91.299-19.239c14.513-31.212,22.328-59.814,27.563-78.984l0.726-2.655    c1.027-3.753,6.029-4.142,7.538-4.171c1.786-0.035,3.858-0.1,6.156-0.171c4.691-0.146,10.605-0.33,16.968-0.317    c-3.77,3.509-6.978,7.744-9.372,12.641c-5.079,10.391-5.807,22.139-2.051,33.078c3.756,10.939,11.548,19.761,21.939,24.84    c1.041,0.508,2.167,0.762,3.293,0.762c1.218,0,2.436-0.297,3.541-0.888c2.125-1.138,3.574-3.229,3.894-5.618l1.621-12.129    l9.776,4.778c3.585,1.752,7.627,1.976,11.384,0.63c3.756-1.346,6.737-4.087,8.392-7.718l5.944-13.034    c3.321-7.282,0.29-15.74-6.901-19.254l-9.432-4.61l8.575-8.73c1.689-1.72,2.449-4.147,2.042-6.523    c-0.402-2.344-1.895-4.353-4.015-5.423l0.002-0.005c-0.022-0.011-0.045-0.021-0.066-0.032c-0.007-0.003-0.013-0.008-0.02-0.011    c-0.029-0.014-0.058-0.026-0.087-0.04c-17.816-8.889-47.897-7.951-65.896-7.389c-2.232,0.07-4.246,0.133-5.981,0.167    c-10.883,0.214-19.203,6.041-21.711,15.207l-0.729,2.664c-5.052,18.501-12.573,46.025-26.312,75.781    c-8.767-5.216-17.15-11.167-25.062-17.823c-3.169-2.666-7.9-2.258-10.567,0.911c-2.667,3.169-2.259,7.901,0.911,10.567    c36.908,31.049,83.319,47.894,131.501,47.894c2.774,0,5.555-0.056,8.339-0.168c51.454-2.073,99.859-23.282,136.297-59.72    s57.647-84.843,59.721-136.297c2.061-51.144-14.889-100.807-47.726-139.84c-2.666-3.169-7.398-3.578-10.567-0.911    c-3.17,2.667-3.578,7.398-0.911,10.567c12.483,14.838,22.482,31.337,29.809,48.907c-7.151-1.618-13.812-2.979-19.902-4.176    c-1.026-3.126-2.407-6.16-4.157-9.043c-9.138-15.051-26.05-22.539-42.486-20.47c-0.221-20.663-3.364-38.891-9.517-55.081    c7.944,4.878,15.615,10.386,22.931,16.541c1.406,1.183,3.12,1.761,4.824,1.761c2.137,0,4.26-0.909,5.743-2.672    c2.667-3.17,2.259-7.901-0.911-10.567c-74.215-62.435-181.807-64.006-257.678-4.383l-25.889-25.89    c42.857-34.894,96.606-54.049,152.072-54.049c64.363,0,124.874,25.064,170.386,70.576    c45.512,45.512,70.576,106.022,70.576,170.386S471.897,380.912,426.385,426.424z M258.4,355.93    c0.794,4.632,3.79,8.629,8.012,10.692l9.558,4.672l-5.663,12.416l-9.886-4.832c-4.223-2.063-9.217-1.971-13.358,0.248    c-4.114,2.203-6.948,6.266-7.597,10.884c-2.316-2.691-4.121-5.826-5.309-9.285c-2.456-7.15-1.98-14.828,1.34-21.62    c5.112-10.458,15.848-16.362,26.809-15.84C259.072,346.613,257.612,351.338,258.4,355.93z" fill="#a7dc4c" data-original="#000000" style="" class=""/>
	</g>
</g>
<g xmlns="http://www.w3.org/2000/svg">
	<g>
		<path d="M389.786,294.258c-5.285-12.088-14.96-21.395-27.245-26.206c-2.245-0.879-4.775-0.625-6.801,0.682    c-2.025,1.307-3.299,3.508-3.424,5.916l-0.766,14.85c-0.005,0.111-0.023,0.449-0.401,0.693c-0.377,0.244-0.692,0.12-0.796,0.08    l-12.369-4.844c-4.024-1.576-8.408-1.461-12.345,0.323c-3.936,1.784-6.912,5.005-8.379,9.07l-5.693,15.766    c-2.944,8.153,1.073,17.016,9.144,20.177l11.951,4.68c0.104,0.041,0.419,0.164,0.53,0.599c0.112,0.435-0.105,0.695-0.176,0.781    l-9.523,11.421c-1.544,1.852-2.104,4.333-1.504,6.667c0.6,2.335,2.285,4.24,4.53,5.119c5.84,2.287,11.936,3.428,18.024,3.428    c6.719,0,13.429-1.39,19.771-4.162c12.088-5.285,21.396-14.96,26.206-27.245C395.331,319.769,395.07,306.346,389.786,294.258z     M376.553,326.586c-3.35,8.553-9.83,15.291-18.248,18.97c-4.937,2.158-10.195,3.111-15.42,2.858l1.651-1.981    c3.26-3.909,4.45-9.186,3.185-14.116s-4.85-8.981-9.59-10.838l-11.951-4.68c-0.445-0.176-0.667-0.666-0.504-1.117l5.693-15.766    c0.083-0.231,0.239-0.4,0.463-0.501c0.223-0.101,0.454-0.108,0.683-0.018l12.368,4.844c4.739,1.856,10.122,1.317,14.399-1.443    c4.277-2.759,6.987-7.441,7.249-12.524l0.133-2.575c4.01,3.363,7.22,7.634,9.378,12.57    C379.722,308.686,379.903,318.032,376.553,326.586z" fill="#a7dc4c" data-original="#000000" style="" class=""/>
	</g>
</g>
<g xmlns="http://www.w3.org/2000/svg">
	<g>
		<path d="M326.802,383.154c-3.117-2.728-7.855-2.412-10.583,0.706l-7.497,8.568c-2.728,3.117-2.412,7.855,0.706,10.583    c1.423,1.245,3.183,1.856,4.936,1.856c2.087,0,4.165-0.867,5.647-2.561l7.497-8.568    C330.235,390.62,329.919,385.882,326.802,383.154z" fill="#a7dc4c" data-original="#000000" style="" class=""/>
	</g>
</g>
<g xmlns="http://www.w3.org/2000/svg">
	<g>
		<path d="M423.758,296.466l-2.677-8.032c-1.311-3.93-5.558-6.053-9.487-4.744c-3.93,1.31-6.053,5.557-4.744,9.487l2.677,8.033    c1.048,3.143,3.974,5.13,7.114,5.13c0.786,0,1.586-0.125,2.373-0.387C422.944,304.643,425.067,300.396,423.758,296.466z" fill="#a7dc4c" data-original="#000000" style="" class=""/>
	</g>
</g>
<g xmlns="http://www.w3.org/2000/svg">
	<g>
		<path d="M217.598,413.735l-2.677-8.031c-1.31-3.93-5.558-6.053-9.487-4.744c-3.93,1.31-6.053,5.557-4.744,9.487l2.677,8.032    c1.048,3.143,3.974,5.13,7.114,5.13c0.786,0,1.586-0.125,2.373-0.387C216.784,421.912,218.907,417.665,217.598,413.735z" fill="#a7dc4c" data-original="#000000" style="" class=""/>
	</g>
</g>
<g xmlns="http://www.w3.org/2000/svg">
	<g>
		<path d="M312.227,338.177l-1.428-3.57c-1.539-3.845-5.902-5.717-9.75-4.177c-3.846,1.539-5.716,5.904-4.177,9.749l1.428,3.57    c1.173,2.932,3.989,4.716,6.966,4.716c0.927,0,1.87-0.173,2.784-0.539C311.896,346.387,313.766,342.022,312.227,338.177z" fill="#a7dc4c" data-original="#000000" style="" class=""/>
	</g>
</g>
<g xmlns="http://www.w3.org/2000/svg">
	<g>
		<path d="M236.722,166.393h-4.284c-4.142,0-7.5,3.358-7.5,7.5c0,4.142,3.358,7.5,7.5,7.5h4.284c4.142,0,7.5-3.358,7.5-7.5    C244.222,169.751,240.864,166.393,236.722,166.393z" fill="#a7dc4c" data-original="#000000" style="" class=""/>
	</g>
</g>
<g xmlns="http://www.w3.org/2000/svg">
	<g>
		<path d="M300.265,165.68c-4.142,0-7.5,3.358-7.5,7.5v3.57c0,4.142,3.358,7.5,7.5,7.5c4.142,0,7.5-3.358,7.5-7.5v-3.57    C307.765,169.037,304.407,165.68,300.265,165.68z" fill="#a7dc4c" data-original="#000000" style="" class=""/>
	</g>
</g>
<g xmlns="http://www.w3.org/2000/svg">
</g>
<g xmlns="http://www.w3.org/2000/svg">
</g>
<g xmlns="http://www.w3.org/2000/svg">
</g>
<g xmlns="http://www.w3.org/2000/svg">
</g>
<g xmlns="http://www.w3.org/2000/svg">
</g>
<g xmlns="http://www.w3.org/2000/svg">
</g>
<g xmlns="http://www.w3.org/2000/svg">
</g>
<g xmlns="http://www.w3.org/2000/svg">
</g>
<g xmlns="http://www.w3.org/2000/svg">
</g>
<g xmlns="http://www.w3.org/2000/svg">
</g>
<g xmlns="http://www.w3.org/2000/svg">
</g>
<g xmlns="http://www.w3.org/2000/svg">
</g>
<g xmlns="http://www.w3.org/2000/svg">
</g>
<g xmlns="http://www.w3.org/2000/svg">
</g>
<g xmlns="http://www.w3.org/2000/svg">
</g>
</g></svg>
